<!-- icon666.com - MILLIONS vector ICONS FREE --><svg id="_x33_0" enable-background="new 0 0 64 64" viewBox="0 0 64 64" xmlns="http://www.w3.org/2000/svg" xmlns:xlink="http://www.w3.org/1999/xlink"><linearGradient id="SVGID_1_" gradientUnits="userSpaceOnUse" x1="31.854" x2="31.854" y1="63" y2="1"><stop offset="0" stop-color="#9f2fff"></stop><stop offset="1" stop-color="#0bb1d3"></stop></linearGradient><path d="m47 37.378c0-4.75-3.381-8.874-8.039-9.806l-2.196-.439-.208-.623c2.298-.906 4-2.992 4.363-5.509h.08c2.206 0 4-1.794 4-4 0-.562-.119-1.096-.329-1.582.209-1.18.329-2.38.329-3.58 0-5.977-4.862-10.839-10.838-10.839h-7c-2.148 0-4.067 1.267-4.924 3.2-1.938.663-3.238 2.479-3.238 4.53 0 .228.016.453.048.678l.746 5.223c-.492.665-.794 1.479-.794 2.369 0 2.206 1.794 4 4 4h.08c.363 2.517 2.065 4.603 4.363 5.509l-.208.623-2.196.439c-4.658.933-8.039 5.057-8.039 9.807v3.622h-6v2h6v4c0 1.103.897 2 2 2 0 2.206 1.794 4 4 4v8c0 1.103.897 2 2 2h6c.366 0 .705-.106 1-.278.295.172.634.278 1 .278h6c1.103 0 2-.897 2-2v-8c2.206 0 4-1.794 4-4 1.103 0 2-.897 2-2v-4h4v-2h-4zm-16 18.648c-.838-.635-1.87-1.026-3-1.026s-2.162.391-3 1.026v-9.026h6zm2-9.026h6v9.026c-.838-.635-1.87-1.026-3-1.026s-2.162.391-3 1.026zm-1-2.414-1.905-1.905 1.707-7.681h.396l1.707 7.681zm-4.14-15.538 2.246 1.123-1.662 1.246-.921-2.302zm4.605 3.952h-.93l-.623-.934 1.088-.816 1.088.816zm1.43-2.829 2.246-1.123.337.067-.921 2.302zm7.105-11.171v-4c1.103 0 2 .897 2 2s-.897 2-2 2zm-20-2c0-1.103.897-2 2-2v4c-1.103 0-2-.897-2-2zm2.107-4h-.107c-.487 0-.949.1-1.381.261l-.591-4.136c-.019-.131-.028-.263-.028-.395 0-1.202.766-2.265 1.908-2.646l.883-.295.158-.474c.461-1.384 1.753-2.315 3.213-2.315h7c4.873 0 8.838 3.965 8.838 8.838 0 .558-.03 1.118-.081 1.674-.572-.316-1.22-.512-1.919-.512h-.184c-.414-1.161-1.514-2-2.816-2h-1c-2.206 0-4-1.794-4-4h-2c0 1.513.567 2.892 1.494 3.949-1.965-.252-3.494-1.916-3.494-3.949h-2c0 .716.126 1.403.357 2.041-2.122.274-3.827 1.886-4.25 3.959zm1.893 7v-6c0-1.654 1.346-3 3-3h.532c1.099 1.227 2.695 2 4.468 2h5c.551 0 1 .448 1 1v6c0 2.757-2.243 5-5 5h-4c-2.757 0-5-2.243-5-5zm5 7h4c.203 0 .403-.013.602-.031l.175.524-2.777 1.389-2.777-1.388.175-.524c.199.017.399.03.602.03zm-11 10.378c0-3.8 2.705-7.099 6.431-7.845l.098-.019 2.028 5.069 1.754-1.315.621.932-2.027 9.12 1.681 1.68h-4.586v-6.586c0-1.179-.459-2.287-1.292-3.121l-1.415 1.414c.456.456.707 1.063.707 1.707v8.586h-4zm2 11.622h2v2c-1.103 0-2-.897-2-2zm4 12v-1c0-1.654 1.346-3 3-3s3 1.346 3 3v1zm14 0h-6v-1c0-1.654 1.346-3 3-3s3 1.346 3 3zm2-10v-2h2c0 1.103-.897 2-2 2zm4-4h-4v-8.586c0-.645.251-1.251.708-1.707l-1.415-1.414c-.834.834-1.293 1.942-1.293 3.121v6.586h-4.586l1.681-1.681-2.027-9.12.621-.932 1.754 1.315 2.028-5.069.097.019c3.727.747 6.432 4.046 6.432 7.846zm-12-24h-4v-2h4c1.103 0 2-.897 2-2h2c0 2.206-1.794 4-4 4zm0-4h-2v-4h2zm-25.414 2h-6.586v8h8v-6.586l1.707-1.707-1.414-1.414zm-.586 6h-4v-4h2.586l-1.293 1.293 1.414 1.414 1.293-1.293zm14 0h-10v-2h10zm-13.414 10h-6.586v8h8v-6.586l1.707-1.707-1.414-1.414zm-.586 6h-4v-4h2.586l-1.293 1.293 1.414 1.414 1.293-1.293zm2.293 8.293-1.707 1.707h-6.586v8h8v-6.586l1.707-1.707zm-2.293 7.707h-4v-4h2.586l-1.293 1.293 1.414 1.414 1.293-1.293zm52.586-38h-6.586v8h8v-6.586l1.707-1.707-1.414-1.414zm-.586 6h-4v-4h2.586l-1.293 1.293 1.414 1.414 1.293-1.293zm.586 10h-6.586v8h8v-6.586l1.707-1.707-1.414-1.414zm-.586 6h-4v-4h2.586l-1.293 1.293 1.414 1.414 1.293-1.293zm2.293 8.293-1.707 1.707h-6.586v8h8v-6.586l1.707-1.707zm-2.293 7.707h-4v-4h2.586l-1.293 1.293 1.414 1.414 1.293-1.293zm-48-2h10v2h-10zm32-32h8v2h-8zm0 32h8v2h-8z" fill="url(#SVGID_1_)"></path></svg>