<!-- icon666.com - MILLIONS vector ICONS FREE --><svg id="Layer_5" viewBox="0 0 64 64" xmlns="http://www.w3.org/2000/svg" xmlns:xlink="http://www.w3.org/1999/xlink"><linearGradient id="lg1"><stop offset="0" stop-color="#fedbb8"></stop><stop offset="1" stop-color="#20f6a8"></stop></linearGradient><linearGradient id="SVGID_1_" gradientUnits="userSpaceOnUse" x1="32.016" x2="32.016" xlink:href="#lg1" y1="64" y2="0"></linearGradient><linearGradient id="SVGID_2_" gradientUnits="userSpaceOnUse" x1="31.981" x2="31.981" xlink:href="#lg1" y1="64" y2="0"></linearGradient><path d="m32.075 55.985c1.28 0 2.567-.105 3.826-.312 11.447-1.882 20.08-12.063 20.08-23.681 0-9.933-6.243-18.96-15.534-22.464-2.664-1.004-5.475-1.513-8.354-1.513-7.1 0-13.785 3.05-18.343 8.368-6.468 7.548-7.551 18.846-2.634 27.475 4.261 7.48 12.292 12.127 20.959 12.127zm-15.288-36.999c3.797-4.43 9.375-6.971 15.306-6.971 2.396 0 4.732.422 6.943 1.256 7.743 2.919 12.945 10.442 12.945 18.721 0 9.683-7.191 18.167-16.729 19.734-1.045.172-2.114.259-3.177.259-.001 0-.001 0-.001 0-7.232 0-13.933-3.873-17.484-10.108-4.095-7.188-3.192-16.601 2.197-22.891z" fill="url(#SVGID_1_)"></path><g fill="url(#SVGID_2_)"><path d="m21.981 33.992h20c1.104 0 2-.896 2-2s-.896-2-2-2h-20c-1.104 0-2 .896-2 2s.896 2 2 2z"></path><path d="m31.981 43.992c1.104 0 2-.896 2-2v-20c0-1.104-.896-2-2-2s-2 .896-2 2v20c0 1.105.896 2 2 2z"></path></g></svg>