<!-- icon666.com - MILLIONS vector ICONS FREE --><svg id="Capa_1" enable-background="new 0 0 512.139 512.139" viewBox="0 0 512.139 512.139" xmlns="http://www.w3.org/2000/svg" xmlns:xlink="http://www.w3.org/1999/xlink"><linearGradient id="SVGID_1_" gradientUnits="userSpaceOnUse" x1="256.069" x2="256.069" y1="512.139" y2="0"><stop offset="0" stop-color="#5558ff"></stop><stop offset="1" stop-color="#00c0ff"></stop></linearGradient><g><g><g><path d="m470.597 71.75c7.909-2.465 12.322-10.875 9.856-18.784-2.466-7.91-10.876-12.324-18.784-9.856l-34.349 10.707 10.707-34.349c2.466-7.909-1.947-16.319-9.856-18.784-7.906-2.465-16.318 1.946-18.784 9.856l-12.263 39.34c-39.863-32.225-89.143-49.744-141.123-49.744-124.35 0-225 100.632-225 225 0 87.871 50.209 163.598 123.058 200.696l-31.542 64.733c-3.629 7.447-.533 16.426 6.914 20.055 7.432 3.622 16.419.548 20.055-6.914l32.202-66.088c23.572 8.224 48.611 12.518 74.313 12.518s50.741-4.294 74.313-12.518l32.202 66.088c3.634 7.458 12.618 10.538 20.055 6.914 7.447-3.629 10.543-12.607 6.914-20.055l-31.542-64.733c72.68-37.012 123.058-112.58 123.058-200.696 0-51.979-17.52-101.259-49.744-141.123zm-19.596 153.386c0 107.523-87.477 195-195 195s-195-87.477-195-195 87.477-195 195-195c48.374 0 92.685 17.712 126.803 46.983l-31.925 31.925c-25.869-21.181-58.914-33.909-94.879-33.909-82.71 0-150 67.29-150 150s67.29 150 150 150 150-67.29 150-150c0-35.965-12.728-69.01-33.908-94.878l31.925-31.925c29.272 34.119 46.984 78.43 46.984 126.804zm-205.606 10.606c2.929 2.929 6.768 4.394 10.606 4.394s7.678-1.464 10.606-4.394l29.996-29.996c2.817 5.875 4.398 12.451 4.398 19.389 0 24.813-20.187 45-45 45s-45-20.187-45-45 20.187-45 45-45c6.939 0 13.514 1.581 19.389 4.397l-29.996 29.996c-5.857 5.859-5.857 15.356.001 21.214zm51.936-73.149c-11.859-7.863-26.065-12.458-41.33-12.458-41.355 0-75 33.645-75 75s33.645 75 75 75 75-33.645 75-75c0-15.264-4.594-29.47-12.458-41.33l32.213-32.213c15.813 20.328 25.244 45.854 25.244 73.543 0 66.168-53.832 120-120 120s-120-53.832-120-120 53.832-120 120-120c27.689 0 53.215 9.432 73.543 25.244z" fill="url(#SVGID_1_)"></path></g></g></g></svg>