<!-- icon666.com - MILLIONS vector ICONS FREE --><svg fill="none" viewBox="0 0 32 32" xmlns="http://www.w3.org/2000/svg"><path clip-rule="evenodd" d="m16 28c6.6274 0 12-5.3726 12-12 0-6.62742-5.3726-12-12-12-6.62742 0-12 5.37258-12 12 0 6.6274 5.37258 12 12 12zm-6.99999-16.4c-.22092 0-.4.1791-.4.4s.17908.4.4.4h3.99999c.2209 0 .4-.1791.4-.4s-.1791-.4-.4-.4zm14.20569 7.6003c.1107-.1912.0453-.4359-.1459-.5465-.1912-.1107-.4359-.0453-.5465.1459-1.3147 2.2727-3.771 3.8003-6.5835 3.8003-.221 0-.4.1791-.4.4s.179.4.4.4c3.1096 0 5.8241-1.69 7.2759-4.1997zm-4.6057-7.2003c0-.2209.1791-.4.4-.4h4c.2209 0 .4.1791.4.4s-.1791.4-.4.4h-4c-.2209 0-.4-.1791-.4-.4z" fill="#ffc048" fill-rule="evenodd"></path></svg>